{
  "accessors": [
    {
      "bufferView": 1,
      "componentType": 5126,
      "count": 1440,
      "max": [
        39.370079040527344,
        39.370079040527344,
        39.370079040527344
      ],
      "min": [
        -39.370079040527344,
        -39.370079040527344,
        -39.370079040527344
      ],
      "type": "VEC3"
    },
    {
      "bufferView": 1,
      "byteOffset": 17280,
      "componentType": 5126,
      "count": 1440,
      "max": [
        0.9825186133384705,
        0.993289589881897,
        0.9834015965461731
      ],
      "min": [
        -0.9834020137786865,
        -0.993289589881897,
        -0.9834015965461731
      ],
      "type": "VEC3"
    },
    {
      "bufferView": 0,
      "componentType": 5125,
      "count": 1440,
      "type": "SCALAR"
    }
  ],
  "asset": {
    "extras": {
      "author": "Gerry in Québec (https://sketchfab.com/quebec)",
      "license": "CC-BY-4.0 (http://creativecommons.org/licenses/by/4.0/)",
      "source": "https://sketchfab.com/3d-models/31-great-circles-76b2c99d64194cbe9752f12f356045b7",
      "title": "31 great circles"
    },
    "generator": "Sketchfab-12.66.0",
    "version": "2.0"
  },
  "bufferViews": [
    {
      "buffer": 0,
      "byteLength": 5760,
      "name": "floatBufferViews",
      "target": 34963
    },
    {
      "buffer": 0,
      "byteLength": 34560,
      "byteOffset": 5760,
      "byteStride": 12,
      "name": "floatBufferViews",
      "target": 34962
    }
  ],
  "buffers": [
    {
      "byteLength": 40320,
      "uri": "scene.bin"
    }
  ],
  "materials": [
    {
      "doubleSided": true,
      "name": "material_0",
      "pbrMetallicRoughness": {
        "baseColorFactor": [
          0.8,
          0.8,
          0.317647,
          1.0
        ],
        "metallicFactor": 0.0,
        "roughnessFactor": 0.6
      }
    }
  ],
  "meshes": [
    {
      "name": "Material2",
      "primitives": [
        {
          "attributes": {
            "NORMAL": 1,
            "POSITION": 0
          },
          "indices": 2,
          "material": 0,
          "mode": 4
        }
      ]
    }
  ],
  "nodes": [
    {
      "children": [
        1
      ],
      "matrix": [
        1.0,
        0.0,
        0.0,
        0.0,
        0.0,
        2.220446049250313e-16,
        -1.0,
        0.0,
        0.0,
        1.0,
        2.220446049250313e-16,
        0.0,
        0.0,
        0.0,
        0.0,
        1.0
      ],
      "name": "Sketchfab_model"
    },
    {
      "children": [
        2
      ],
      "name": "Collada visual scene group"
    },
    {
      "children": [
        3
      ],
      "name": "SketchUp"
    },
    {
      "children": [
        4
      ],
      "name": "instance_0"
    },
    {
      "children": [
        5
      ],
      "name": "skpC1E4"
    },
    {
      "mesh": 0,
      "name": "Material2"
    }
  ],
  "scene": 0,
  "scenes": [
    {
      "name": "Sketchfab_Scene",
      "nodes": [
        0
      ]
    }
  ]
}
